<?xml version="1.0" encoding="utf-8"?>
<!-- Generator: Adobe Illustrator 24.1.0, SVG Export Plug-In . SVG Version: 6.00 Build 0)  -->
<svg version="1.1" id="full-logo" xmlns="http://www.w3.org/2000/svg" xmlns:xlink="http://www.w3.org/1999/xlink" x="0px" y="0px"
	 viewBox="0 0 720.9 163.2" style="enable-background:new 0 0 720.9 163.2;" xml:space="preserve">
<style type="text/css">
	.st0{fill:#ffffff;}
</style>
<path class="st0" d="M175.2,0H721v75.8c-0.4,0-0.9,0.1-1.3,0.1H175.1V1.3C175.1,0.9,175.2,0.4,175.2,0z M244.1,41.4H263v10.8h-5.4
	v6.1h18.5v-6.1h-5.3V24h5.3v-6h-18.6v6h5.4v10.8H244V24h5.3v-6h-18.4v6.1h5.1v28.1h-5.1v6.1h18.4v-6.2h-5.2V41.4z M489.9,34.9V24
	h5.4v-6h-18.5v6h5.3v28.1h-5.3v6.1h18.5v-6.1H490V41.4h19v10.7h-5.3v6.1h18.5v-6.1h-5.3V24h5.3v-6h-18.5v6.1h5.4v10.8H489.9z
	 M676.5,24v-6H658v6h5.3v28.2H658v6h18.5V52h-5.4V41.4h19v10.7h-5.3v6.1h18.5v-6.1H698V24h5.3v-6h-18.6v6h5.4v10.8h-19V24H676.5z
	 M320.5,52.2c-1.3,0-2.6,0-3.9,0c-0.7,0.1-1.3-0.3-1.6-0.9c-1.1-2-2.3-4-3.4-6c-0.7-1.2-1.4-2.4-2.1-3.7c0.4-0.2,0.6-0.3,0.9-0.4
	c8.1-3.2,9-12.5,4.8-17.8c-2.9-3.6-6.9-5.1-11.2-5.3c-7.2-0.2-14.4-0.1-21.6-0.1c-0.2,0-0.4,0.1-0.6,0.1v6h5.3v28.1h-5.3v6.1h18.4
	v-6.1h-5.3v-8.6c2.1,0,4,0,6,0c0.7-0.1,1.4,0.3,1.6,1c2.4,4.4,4.9,8.7,7.3,13c0.2,0.3,0.6,0.8,0.9,0.8c3.2,0.1,6.5,0,9.8,0
	L320.5,52.2z M579.2,24v28.2h-5.3v6.1h18.4v-6.2H587v-8.6c2,0,4,0,5.9,0c0.7-0.1,1.5,0.3,1.8,1c2.4,4.3,4.8,8.7,7.2,13
	c0.2,0.4,0.6,0.8,1,0.8c3.2,0.1,6.5,0,9.7,0v-6.2c-1.4,0-2.7,0-3.9,0c-0.6,0.1-1.3-0.3-1.5-0.9c-1.7-3-3.4-6-5.1-9
	c-0.1-0.3-0.2-0.5-0.4-0.8c0.3-0.1,0.6-0.3,0.8-0.4c8.6-3.3,9.1-13.9,3.7-19c-2.8-2.6-6.5-4-10.3-4c-7.2-0.2-14.4-0.1-21.6-0.1
	c-0.2,0-0.4,0-0.6,0.1v6L579.2,24z M557.2,24c0,7.1,0.1,14,0,20.9c0.1,3.3-2.2,6.1-5.4,6.8c-1.3,0.3-2.7,0.5-4,0.4
	c-5.5,0-8.5-3.1-8.5-8.6V24h5.4v-6h-18.6v6h5.4v1.5c0,6.6-0.1,13.2,0,19.8c0.1,5.5,2.5,9.6,7.5,12c3.8,1.7,7.9,2.2,12,1.6
	c2.9-0.2,5.7-1.3,8-3c3.8-2.9,5.3-7,5.3-11.6c0.1-6.3,0-12.5,0-18.8V24h5.4v-6h-18.1v6H557.2z M348.7,46.8c0,3.2,0,6.3,0,9.4
	c0,0.3,0.4,0.7,0.8,0.8c1.2,0.3,2.5,0.6,3.7,0.9c5.1,1,10.3,1.6,15.6,0.6c8.5-1.7,10.8-8,9.2-14.6c-0.9-3.5-3.4-5.8-6.6-7.2
	c-3-1.3-6.1-2.2-9.2-3.4c-1.5-0.5-2.8-1.3-4-2.2c-1.7-1.4-2-3.9-0.6-5.6c0.4-0.5,0.9-0.9,1.5-1.2c3.6-1.8,7.4-1.2,11.2-0.6v5.4h7V19
	c-2.8-0.6-5.5-1.2-8.3-1.6c-4-0.7-8.2-0.4-12.1,0.9c-4.7,1.7-7.4,5-7.6,10.1c-0.4,4.4,2.1,8.6,6.2,10.3c2.3,1.1,4.7,1.8,7,2.7
	c2,0.7,3.9,1.5,5.9,2.4c1.8,0.8,2.9,2.7,2.6,4.7c-0.2,2.3-1.7,3.4-3.7,4c-3.9,1.1-7.7,0.6-11.6-0.3V47h-7V46.8z M652.7,48.2
	l-1.7,0.9c-4.4,2.4-9.4,3.6-14.5,3.3c-5.4-0.3-10.1-3.9-11.7-9.1c-1.1-3.6-1.1-7.4,0.1-11c0.8-2.6,2.5-4.9,4.8-6.4
	c5-3.2,10.2-2.6,15.6-1.3v7.3h7.4c0-3.7,0-7.4,0-11c0-0.3-0.5-0.8-0.8-0.9c-6.2-2.4-12.7-3.7-19.3-2.4c-6.2,1.2-11.1,4.3-14.1,10.1
	c-2.2,4.4-2.9,9.3-2.2,14.1c0.8,6.3,3.7,11.3,9.3,14.5c4.7,2.6,9.8,3.1,15,2.8c3.9-0.3,7.7-1.3,11.2-3c0.5-0.2,0.8-0.6,0.9-1.1
	C652.8,52.7,652.7,50.6,652.7,48.2L652.7,48.2z M471.5,48.2c-0.5,0.2-0.8,0.4-1.1,0.5c-4.7,2.5-9.6,4.1-15,3.5
	c-4.6-0.5-8.4-2.4-10.7-6.6c-1.9-3.6-2.3-7.8-1.4-11.8c0.7-4.3,3.7-7.9,7.8-9.4c4.1-1.5,8.2-1.1,12.4-0.1c0.3,0.1,0.6,0.6,0.6,0.9
	c0,2.1,0,4.3,0,6.5h7.4c0-3.7,0-7.3,0-10.9c-0.1-0.4-0.4-0.8-0.8-1c-6.2-2.4-12.6-3.6-19.2-2.4s-11.7,4.7-14.6,11
	c-1.9,4.3-2.5,9.1-1.7,13.7c0.4,3.3,1.7,6.5,3.7,9.2c3.8,5,9.1,7.1,15.1,7.6c5.7,0.5,11.4-0.5,16.5-3c0.5-0.2,0.8-0.6,0.9-1.1
	C471.6,52.8,471.5,50.6,471.5,48.2L471.5,48.2z M225.7,31.9c0-3.7,0-7.4,0-11.1c0-0.3-0.5-0.7-0.9-0.9c-6.2-2.4-12.5-3.6-19.1-2.4
	c-6.3,1.1-11.2,4.3-14.2,10.1c-2.2,4.5-2.9,9.5-2.1,14.5c1,7.3,4.7,12.7,11.8,15.3c8.1,3,16.1,2.1,23.9-1.5c0.2-0.1,0.6-0.4,0.6-0.7
	c0-2.3,0-4.6,0-7l-1.2,0.7c-4.6,2.4-9.5,3.9-14.8,3.4c-3.2-0.2-6.2-1.6-8.6-3.8c-2.4-2.4-3.7-5.6-3.8-8.9c-0.3-4.5,0.4-8.8,3.7-12.2
	s7.4-4.1,11.9-3.8c1.9,0.1,3.7,0.5,5.7,0.8v7.4L225.7,31.9z M418.9,18h-36.6v12.1h7v-6h7.3v28.1h-5.8v6.1h19.5v-6.2h-5.8v-28h7.5v6
	h6.9V18z M324.8,52.1v6.1h18.4v-6.1H338V24h5.2v-6h-18.4v6.1h5.3v28H324.8z"/>
<path class="st0" d="M163.2,0v163.2H0V0H163.2z M140.5,38.3c-9.3,3.4-18.3,6.7-27.3,10c-0.7,0.1-1.2,0.8-1.1,1.5c0,5.3,0,10.6,0,16
	c0,0.3,0.1,0.7,0.1,1h6.6v-5.3l29.9,1v5.3h6.5v-18h-6.6V55c-0.7-0.1-1.2-0.2-1.7-0.2c-5-0.2-10-0.3-15-0.5L121.4,54
	c-0.3,0-0.5-0.1-0.8-0.1c1.1-0.4,1.9-0.8,2.8-1.1c9.1-3.6,18.3-7.2,27.4-10.8c0.5-0.1,0.8-0.6,0.8-1.1c0-1.8,0-3.5,0-5.3
	c0-0.6-0.2-0.9-0.8-1.1c-7.7-3-15.4-6-23.1-9l-6.9-2.7l0.1-0.2l27.7-0.9v5.1h6.6v-18h-6.6V14l-29.8,1V9.8h-6.6c0,5.9,0,11.7,0,17.5
	c0.1,0.4,0.3,0.7,0.6,0.8c1.9,0.8,3.8,1.5,5.8,2.2L140.5,38.3z M143.7,72.8c0.1,0.3,0.2,0.6,0.3,0.9c2.9,5.3,4.7,10.8,3.9,16.9
	c-0.6,4.9-2.9,8.7-7.4,10.9c-3.6,1.7-7.6,2.1-11.4,1.3c-6.1-0.8-10.8-5.7-11.4-11.9c-0.4-3.5-0.1-7,0.9-10.4h7.7v-7.8
	c-4,0-7.9,0-11.8,0c-0.4,0-0.7,0.3-0.9,0.6c-2.9,7.6-4.4,15.3-2,23.4c1.4,5.4,5,9.9,10,12.4c5.3,2.7,11.4,3.4,17.2,2.1
	c7-1.1,12.7-6,14.9-12.7c1.7-4.9,2.1-10.1,1.2-15.2c-0.4-3.4-1.5-6.8-3.1-9.8c-0.2-0.3-0.5-0.6-0.9-0.7
	C148.6,72.8,146.2,72.8,143.7,72.8z M126.3,125.2v-7.8c-4,0-7.9,0-11.8,0c-0.3,0-0.8,0.5-0.9,0.8c-0.8,2.2-1.5,4.4-2.1,6.7
	c-1.4,5.4-1.4,11,0.1,16.4c2,6.7,6.2,11.4,12.8,13.7c4.5,1.5,9.3,1.8,13.9,0.9c7.3-1.4,12.5-5.4,15.2-12.4c2-5,2.1-10.3,1.4-15.5
	c-0.4-3.4-1.4-6.8-3-9.8c-0.2-0.3-0.5-0.7-0.8-0.7c-2.4,0-4.9,0-7.5,0l0.8,1.6c2.6,5.1,4.3,10.4,3.4,16.3c-0.7,4.8-2.9,8.6-7.4,10.8
	c-3.9,1.8-8.3,2.2-12.4,1.1c-3.1-0.6-5.9-2.4-7.8-5c-1.4-2-2.3-4.3-2.6-6.7c-0.4-3.5-0.1-7,0.9-10.3L126.3,125.2z"/>
<path class="st0" d="M174.9,163.2v-76H492v76H174.9z M202,113.2h0.3l11.2,28.6c2,0,3.9,0,5.8,0c0.4,0,0.7-0.3,0.9-0.6
	c2.8-6.9,5.5-13.9,8.2-20.9c0.9-2.4,1.9-4.8,2.8-7.1l0.3,0.1c0.3,8.6,0.6,17.1,0.9,25.8h-4.9v6.1h17V139h-4.9
	c-0.3-9.3-0.7-18.6-1-27.9h4.9v-6.3c-5.5,0-10.9,0-16.3,0c-0.4,0-0.9,0.5-1,0.9c-2.8,7.5-5.5,15-8.2,22.5c-0.3,0.9-0.7,1.8-1.1,2.7
	h-0.3l-9.6-26.1h-17v6.3h5c-0.1,1.7-0.2,3.4-0.3,5c-0.2,5.3-0.3,10.6-0.5,15.9c-0.1,2.3-0.2,4.6-0.3,7H189v6.1h17V139h-4.9
	C201.4,130.3,201.7,121.7,202,113.2L202,113.2z M441.1,139h-5.2v6.1h18.5V139h-5.3v-8.4c2.2,0,4.4,0,6.5,0c0.4,0.1,0.7,0.3,0.9,0.6
	c2.1,3.6,4.1,7.2,6.1,10.9c0.6,1,0.9,2.5,1.8,3s2.3,0.2,3.5,0.2c2.2,0,4.5,0,6.7,0V139c-1.4,0-2.8,0-4.1,0c-0.4-0.1-0.8-0.3-1.1-0.6
	c-0.9-1.5-1.8-3-2.6-4.5c-1-1.8-2-3.6-3-5.4c0.3-0.1,0.4-0.2,0.6-0.3c4.2-1.7,6.9-4.7,7.3-9.3c0.7-4.6-1.6-9.2-5.6-11.5
	c-3.2-2-6.9-2.5-10.6-2.6c-6.1-0.1-12.2,0-18.4,0c-0.4,0-0.8,0-1.2,0.1v6.3h5.1L441.1,139z M391.8,145.1H410V139h-4.8l-13.8-34.2
	h-16.6v6.3h5.2c-0.1,0.5-0.2,0.8-0.3,1c-1.3,3.2-2.6,6.3-3.8,9.5c-2.2,5.5-4.5,11-6.7,16.5c-0.1,0.6-0.7,1-1.3,0.9
	c-1.2-0.1-2.5,0-3.7,0v6.1h17.5V139h-5.1c0.6-1.6,1.1-3.1,1.8-4.6c0.2-0.4,0.6-0.7,1-0.8c5,0,10,0,15,0c0.3,0,0.6,0.2,0.8,0.5
	c0.6,1.6,1.2,3.1,1.9,4.9h-5.2L391.8,145.1z M262.9,111.1l-11.3,28H247v6h17.5V139h-5.1c0.6-1.7,1.2-3.3,1.9-4.9
	c0.2-0.3,0.5-0.4,0.8-0.5c5,0,10.1,0,15.1,0c0.3,0,0.6,0.2,0.8,0.5c0.7,1.6,1.2,3.2,1.9,4.9h-5.2v6h18v-6c-1.3,0-2.4-0.1-3.6,0
	c-0.7,0.1-1.4-0.3-1.6-1.1c-4.3-10.7-8.7-21.4-12.9-32.2c-0.2-0.7-0.9-1.2-1.6-1.1c-4.3,0-8.5,0-12.8,0h-2.5v6.4L262.9,111.1
	L262.9,111.1z M287.9,111.1c1.2,0,2.3,0.1,3.4,0c0.8-0.1,1.6,0.3,2,1.1c3.1,5,6.3,9.9,9.5,14.9c0.9,1.5,2.4,2.8,2.7,4.4
	c0.5,2.4,0.1,5,0.1,7.6H300v6.1h19V139h-5.7c0-1.9,0.1-3.6,0-5.3c-0.2-1.7,0.2-3.3,1.2-4.7c0.6-0.8,1.1-1.6,1.6-2.5
	c3.2-4.9,6.3-9.8,9.5-14.7c0.3-0.4,0.8-0.7,1.3-0.7c1.1-0.1,2.3,0,3.5,0v-6.3H312v6.1h5.7l-8.4,13.3l-8.4-13.3h5.7v-6h-18.9
	L287.9,111.1z M352,145.1V139h-5.6v-9.9h14.2v-6.4h-14.2v-11.5h12.3v6h7.2v-12.4h-32.7v6.3h5.2V139h-5.2v6.1H352z M430.7,145.1V139
	h-5.3v-28h5.3v-6.2h-18.6v6.3h5.2v28h-5.1v6.1L430.7,145.1z"/>
<path class="st0" d="M294.8,37.6c-0.1-0.4-0.1-0.6-0.1-0.7V24.2c0.1-0.1,0.2-0.2,0.2-0.2c3,0.1,6-0.1,9,0.2c3.6,0.3,6.2,3.5,5.9,7.1
	c-0.1,0.8-0.3,1.6-0.7,2.4c-0.8,1.9-2.6,3.2-4.6,3.4C301.3,37.5,298.1,37.5,294.8,37.6z"/>
<path class="st0" d="M587,37.6V24c3.5,0.1,7-0.5,10.4,0.6c3.1,1,4.6,3.4,4.5,6.8c-0.1,3-2.4,5.4-5.3,5.7
	C593.5,37.5,590.3,37.5,587,37.6z"/>
<path class="st0" d="M449.1,110.9c3.1,0.1,6.2,0.1,9.2,0.4c2.6,0.2,4.7,1.9,5.4,4.4c0.8,2.4,0.1,5.1-1.8,6.7
	c-1.5,1.2-3.4,1.9-5.3,1.8c-2.4,0.1-4.9,0-7.4,0L449.1,110.9z"/>
<path class="st0" d="M381,127.3c1.9-4.9,3.8-9.7,5.7-14.8c2,5,3.9,9.8,5.8,14.8H381z"/>
<path class="st0" d="M263.9,127.4c1.9-4.9,3.8-9.7,5.7-14.8l5.8,14.8H263.9z"/>
</svg>
